<svg data-v-423bf9ae="" xmlns="http://www.w3.org/2000/svg" viewBox="0 0 203 90" class="iconLeft"><!----><!----><!----><g data-v-423bf9ae="" id="d69ee90a-43a3-4759-a1c7-504413629a4e" fill="black" transform="matrix(6.122448921203613,0,0,6.122448921203613,113.51476287841797,-5.142859935760498)"><path d="M1.30 13.09L1.30 13.09Q1.16 13.09 1.06 12.98L1.06 12.98L1.06 12.98Q0.95 12.88 0.95 12.74L0.95 12.74L0.95 3.64L0.95 3.64Q0.95 3.49 1.06 3.39L1.06 3.39L1.06 3.39Q1.16 3.29 1.30 3.29L1.30 3.29L3.30 3.29L3.30 3.29Q3.46 3.29 3.56 3.39L3.56 3.39L3.56 3.39Q3.65 3.49 3.65 3.64L3.65 3.64L3.65 12.74L3.65 12.74Q3.65 12.88 3.56 12.98L3.56 12.98L3.56 12.98Q3.46 13.09 3.30 13.09L3.30 13.09L1.30 13.09ZM5.01 13.09L5.01 13.09Q4.90 13.09 4.81 13.00L4.81 13.00L4.81 13.00Q4.72 12.91 4.72 12.80L4.72 12.80L4.72 12.80Q4.72 12.71 4.73 12.67L4.73 12.67L7.99 3.70L7.99 3.70Q8.13 3.29 8.55 3.29L8.55 3.29L10.74 3.29L10.74 3.29Q11.16 3.29 11.30 3.70L11.30 3.70L14.56 12.67L14.56 12.67Q14.57 12.71 14.57 12.80L14.57 12.80L14.57 12.80Q14.57 12.91 14.48 13.00L14.48 13.00L14.48 13.00Q14.39 13.09 14.28 13.09L14.28 13.09L12.46 13.09L12.46 13.09Q12.12 13.09 11.98 12.78L11.98 12.78L11.48 11.42L7.81 11.42L7.31 12.78L7.31 12.78Q7.17 13.09 6.83 13.09L6.83 13.09L5.01 13.09ZM9.65 5.75L8.40 9.32L10.89 9.32L9.65 5.75Z"></path></g><!----><g data-v-423bf9ae="" id="3d96a725-70c7-4be3-8b95-648f65363037" transform="matrix(1.3277273178100586,0,0,1.3277273178100586,-18.190948486328125,-21.278705596923828)" stroke="none" fill="black"><path d="M47.783 58.504H80.84a6.135 6.135 0 1 0 1.642-12.045 6.67 6.67 0 0 0 3.394-5.811 6.686 6.686 0 0 0-6.681-6.688 6.7 6.7 0 0 0-1.219.118 6.112 6.112 0 0 0 .756-2.954 6.134 6.134 0 0 0-6.131-6.137 6.07 6.07 0 0 0-3.812 1.336c.094-.433.15-.879.15-1.336a6.14 6.14 0 0 0-6.137-6.137 6.132 6.132 0 0 0-5.361 3.155c-.531-3.342-3.416-5.898-6.907-5.898a7 7 0 0 0-6.912 5.898 6.131 6.131 0 0 0-11.494 2.982c0 .46.052.907.149 1.336a6.704 6.704 0 0 0-4.014-1.336 6.73 6.73 0 0 0-6.729 6.732c0 1.295.374 2.504 1.011 3.532a6.143 6.143 0 0 0-1.497-.194 6.138 6.138 0 0 0-6.137 6.137 6.127 6.127 0 0 0 3.131 5.344 6.134 6.134 0 0 0 1.904 11.966 6.12 6.12 0 0 0 2.992-.783 6.05 6.05 0 0 0-.887 3.158 6.137 6.137 0 0 0 6.137 6.137h9.247v15.668l6.961 1.208V61.613c0-3.074 1.649-3.109 3.387-3.109z"></path></g><!----></svg>