<svg data-v-423bf9ae="" xmlns="http://www.w3.org/2000/svg" viewBox="0 0 155.49850691610308 163" class="iconAbove"><!----><!----><defs data-v-423bf9ae=""><linearGradient data-v-423bf9ae="" gradientTransform="rotate(25)" id="f8e88da7-8a0b-418d-a881-de58437b2963" x1="0%" y1="0%" x2="100%" y2="0%"><stop data-v-423bf9ae="" offset="0%" style="stop-color: rgb(125, 227, 141); stop-opacity: 1;"></stop><stop data-v-423bf9ae="" offset="100%" style="stop-color: rgb(22, 176, 141); stop-opacity: 1;"></stop></linearGradient></defs><g data-v-423bf9ae="" id="a403fdf4-ebb8-46b3-aa21-9c72dac9bdab" fill="url(#f8e88da7-8a0b-418d-a881-de58437b2963)" transform="matrix(3.58208966255188,0,0,3.58208966255188,-7.128361225128174,90.24776458740234)"><path d="M1.99 12.43L1.99 12.43L1.99 12.43Q1.99 11.45 2.22 10.51L2.22 10.51L2.22 10.51Q2.45 9.56 2.87 8.71L2.87 8.71L2.87 8.71Q3.29 7.87 3.87 7.16L3.87 7.16L3.87 7.16Q4.45 6.45 5.15 5.94L5.15 5.94L5.15 5.94Q5.84 5.42 6.62 5.13L6.62 5.13L6.62 5.13Q7.41 4.84 8.23 4.84L8.23 4.84L8.23 4.84Q9.20 4.84 9.74 5.25L9.74 5.25L9.74 5.25Q10.28 5.66 10.28 6.38L10.28 6.38L10.28 6.38Q10.28 6.66 10.20 6.96L10.20 6.96L10.20 6.96Q10.12 7.25 9.97 7.54L9.97 7.54L9.97 7.54Q9.83 7.83 9.63 8.09L9.63 8.09L9.63 8.09Q9.44 8.36 9.20 8.55L9.20 8.55L9.20 8.55Q8.83 8.50 8.57 8.22L8.57 8.22L8.57 8.22Q8.30 7.95 8.23 7.59L8.23 7.59L8.23 7.59Q8.72 7.18 9.01 6.74L9.01 6.74L9.01 6.74Q9.30 6.30 9.30 5.94L9.30 5.94L9.30 5.94Q9.30 5.32 8.53 5.32L8.53 5.32L8.53 5.32Q8.20 5.32 7.86 5.45L7.86 5.45L7.86 5.45Q7.52 5.59 7.17 5.82L7.17 5.82L7.17 5.82Q6.82 6.06 6.49 6.40L6.49 6.40L6.49 6.40Q6.16 6.73 5.88 7.14L5.88 7.14L5.88 7.14Q3.93 9.94 3.93 12.87L3.93 12.87L3.93 12.87Q3.93 13.90 4.26 14.53L4.26 14.53L4.26 14.53Q4.58 15.16 5.11 15.27L5.11 15.27L5.11 15.27Q5.71 15.13 6.64 14.50L6.64 14.50L6.64 14.50Q7.56 13.87 8.65 12.87L8.65 12.87L8.65 12.87Q8.79 13.01 8.82 13.16L8.82 13.16L8.82 13.16Q8.41 13.69 7.98 14.18L7.98 14.18L7.98 14.18Q7.55 14.67 7.12 15.08L7.12 15.08L7.12 15.08Q6.69 15.48 6.28 15.79L6.28 15.79L6.28 15.79Q5.87 16.10 5.52 16.27L5.52 16.27L5.52 16.27Q3.78 16.24 2.88 15.27L2.88 15.27L2.88 15.27Q1.99 14.31 1.99 12.43ZM9.73 14.28L9.73 14.28L9.73 14.28Q9.73 13.66 10.02 12.55L10.02 12.55L10.02 12.55Q10.32 11.44 10.85 9.95L10.85 9.95L10.85 9.95Q11.72 7.59 12.48 6.01L12.48 6.01L12.48 6.01Q13.24 4.44 13.97 3.56L13.97 3.56L13.97 3.56Q14.14 3.58 14.38 3.70L14.38 3.70L14.38 3.70Q14.63 3.81 14.87 3.94L14.87 3.94L14.87 3.94Q15.11 4.07 15.29 4.21L15.29 4.21L15.29 4.21Q15.48 4.35 15.54 4.44L15.54 4.44L15.54 4.44Q14.45 5.73 13.62 7.21L13.62 7.21L13.62 7.21Q12.80 8.69 12.11 10.61L12.11 10.61L12.11 10.61Q11.52 12.26 11.21 13.59L11.21 13.59L11.21 13.59Q10.91 14.91 10.91 15.79L10.91 15.79L10.91 15.79Q10.91 16.03 10.91 16.09L10.91 16.09L10.91 16.09Q10.91 16.14 10.92 16.20L10.92 16.20L10.92 16.20Q10.72 16.17 10.58 16.10L10.58 16.10L10.58 16.10Q10.44 16.03 10.40 15.93L10.40 15.93L10.40 15.93Q10.37 15.86 10.25 15.73L10.25 15.73L10.25 15.73Q10.12 15.60 10.02 15.53L10.02 15.53L10.02 15.53Q9.90 15.44 9.81 15.09L9.81 15.09L9.81 15.09Q9.73 14.73 9.73 14.28ZM13.06 14.24L13.06 14.24L13.06 14.24Q13.06 14.11 13.08 13.92L13.08 13.92L13.08 13.92Q13.10 13.73 13.16 13.42L13.16 13.42L13.16 13.42Q13.22 13.10 13.31 12.66L13.31 12.66L13.31 12.66Q13.40 12.21 13.54 11.58L13.54 11.58L13.54 11.58Q13.57 11.44 13.66 11.13L13.66 11.13L13.66 11.13Q13.76 10.82 13.92 10.48L13.92 10.48L13.92 10.48Q14.08 10.14 14.31 9.81L14.31 9.81L14.31 9.81Q14.55 9.49 14.87 9.34L14.87 9.34L14.87 9.34Q15.11 9.39 15.50 9.63L15.50 9.63L15.50 9.63Q15.89 9.86 16.17 10.26L16.17 10.26L16.17 10.26Q15.85 10.63 15.63 10.99L15.63 10.99L15.63 10.99Q15.41 11.35 15.24 11.75L15.24 11.75L15.24 11.75Q15.06 12.14 14.92 12.56L14.92 12.56L14.92 12.56Q14.77 12.98 14.59 13.44L14.59 13.44L14.59 13.44Q14.43 13.83 14.31 14.25L14.31 14.25L14.31 14.25Q14.18 14.66 14.17 14.97L14.17 14.97L14.17 14.97Q14.17 15.22 14.16 15.32L14.16 15.32L14.16 15.32Q14.15 15.43 14.08 15.43L14.08 15.43L14.08 15.43Q14.03 15.43 13.86 15.36L13.86 15.36L13.86 15.36Q13.69 15.29 13.52 15.14L13.52 15.14L13.52 15.14Q13.34 14.99 13.20 14.77L13.20 14.77L13.20 14.77Q13.06 14.55 13.06 14.24ZM15.74 8.16L15.74 8.16L15.74 8.16Q15.74 8.08 15.78 7.91L15.78 7.91L15.78 7.91Q15.71 7.84 15.66 7.70L15.66 7.70L15.66 7.70Q15.61 7.56 15.61 7.45L15.61 7.45L15.61 7.45Q15.61 7.32 15.64 7.11L15.64 7.11L15.64 7.11Q15.68 6.89 15.74 6.64L15.74 6.64L15.74 6.64Q15.79 6.38 15.88 6.11L15.88 6.11L15.88 6.11Q15.96 5.84 16.04 5.61L16.04 5.61L16.04 5.61Q16.21 5.61 16.46 5.71L16.46 5.71L16.46 5.71Q16.70 5.80 16.95 5.94L16.95 5.94L16.95 5.94Q17.21 6.09 17.42 6.27L17.42 6.27L17.42 6.27Q17.63 6.44 17.74 6.59L17.74 6.59L17.74 6.59Q17.58 6.75 17.33 7.02L17.33 7.02L17.33 7.02Q17.08 7.29 16.84 7.59L16.84 7.59L16.84 7.59Q16.60 7.90 16.41 8.16L16.41 8.16L16.41 8.16Q16.21 8.43 16.16 8.54L16.16 8.54L16.16 8.54Q15.99 8.51 15.86 8.39L15.86 8.39L15.86 8.39Q15.74 8.27 15.74 8.16ZM18.62 8.39L18.62 8.39L18.62 8.39Q18.98 8.50 19.31 8.88L19.31 8.88L19.31 8.88Q19.63 9.27 19.78 9.73L19.78 9.73L19.78 9.73Q19.63 10.11 19.31 10.64L19.31 10.64L19.31 10.64Q18.98 11.17 18.66 11.72L18.66 11.72L18.66 11.72Q18.34 12.28 18.08 12.78L18.08 12.78L18.08 12.78Q17.82 13.27 17.78 13.59L17.78 13.59L17.78 13.59Q18.00 13.36 18.28 13.04L18.28 13.04L18.28 13.04Q18.55 12.73 18.81 12.41L18.81 12.41L18.81 12.41Q19.07 12.10 19.29 11.84L19.29 11.84L19.29 11.84Q19.52 11.58 19.64 11.45L19.64 11.45L19.64 11.45Q19.91 11.17 20.27 10.80L20.27 10.80L20.27 10.80Q20.64 10.43 21.04 10.10L21.04 10.10L21.04 10.10Q21.43 9.77 21.84 9.54L21.84 9.54L21.84 9.54Q22.25 9.31 22.58 9.31L22.58 9.31L22.58 9.31Q22.95 9.31 23.19 9.55L23.19 9.55L23.19 9.55Q23.44 9.80 23.58 10.07L23.58 10.07L23.58 10.07Q23.58 10.09 23.47 10.14L23.47 10.14L23.47 10.14Q23.37 10.19 23.17 10.42L23.17 10.42L23.17 10.42Q22.97 10.67 22.73 11.11L22.73 11.11L22.73 11.11Q22.48 11.55 22.25 12.06L22.25 12.06L22.25 12.06Q22.02 12.57 21.87 13.10L21.87 13.10L21.87 13.10Q21.71 13.64 21.71 14.07L21.71 14.07L21.71 14.07Q21.71 14.42 21.80 14.52L21.80 14.52L21.80 14.52Q21.90 14.62 22.06 14.62L22.06 14.62L22.06 14.62Q22.22 14.62 22.39 14.55L22.39 14.55L22.39 14.55Q22.55 14.48 22.65 14.48L22.65 14.48L22.65 14.48Q22.71 14.50 22.74 14.60L22.74 14.60L22.74 14.60Q22.78 14.69 22.78 14.76L22.78 14.76L22.78 14.76Q22.67 14.85 22.51 14.95L22.51 14.95L22.51 14.95Q22.36 15.05 22.19 15.13L22.19 15.13L22.19 15.13Q22.02 15.22 21.86 15.27L21.86 15.27L21.86 15.27Q21.70 15.33 21.57 15.33L21.57 15.33L21.57 15.33Q21.17 15.33 20.91 15.21L20.91 15.21L20.91 15.21Q20.65 15.09 20.50 14.90L20.50 14.90L20.50 14.90Q20.36 14.70 20.30 14.43L20.30 14.43L20.30 14.43Q20.24 14.15 20.24 13.85L20.24 13.85L20.24 13.85Q20.24 13.68 20.27 13.47L20.27 13.47L20.27 13.47Q20.30 13.26 20.38 12.97L20.38 12.97L20.38 12.97Q20.47 12.68 20.62 12.29L20.62 12.29L20.62 12.29Q20.78 11.89 21.01 11.33L21.01 11.33L21.01 11.33Q20.99 11.33 20.64 11.52L20.64 11.52L20.64 11.52Q20.29 11.72 19.88 12.12L19.88 12.12L19.88 12.12Q19.22 12.75 18.70 13.37L18.70 13.37L18.70 13.37Q18.17 13.99 17.63 14.74L17.63 14.74L17.63 14.74Q17.32 15.18 17.09 15.48L17.09 15.48L17.09 15.48Q16.86 15.78 16.69 15.88L16.69 15.88L16.69 15.88Q16.39 15.71 16.25 15.41L16.25 15.41L16.25 15.41Q16.11 15.11 16.04 14.78L16.04 14.78L16.04 14.78Q16.04 14.52 16.12 14.11L16.12 14.11L16.12 14.11Q16.20 13.71 16.33 13.21L16.33 13.21L16.33 13.21Q16.46 12.71 16.66 12.17L16.66 12.17L16.66 12.17Q16.86 11.62 17.09 11.07L17.09 11.07L17.09 11.07Q17.63 9.84 18.07 9.14L18.07 9.14L18.07 9.14Q18.51 8.44 18.62 8.39ZM23.93 14.24L23.93 14.24L23.93 14.24Q23.93 14.11 23.95 13.92L23.95 13.92L23.95 13.92Q23.97 13.73 24.02 13.42L24.02 13.42L24.02 13.42Q24.08 13.10 24.17 12.66L24.17 12.66L24.17 12.66Q24.26 12.21 24.40 11.58L24.40 11.58L24.40 11.58Q24.43 11.44 24.53 11.13L24.53 11.13L24.53 11.13Q24.63 10.82 24.79 10.48L24.79 10.48L24.79 10.48Q24.95 10.14 25.18 9.81L25.18 9.81L25.18 9.81Q25.41 9.49 25.73 9.34L25.73 9.34L25.73 9.34Q25.97 9.39 26.36 9.63L26.36 9.63L26.36 9.63Q26.75 9.86 27.03 10.26L27.03 10.26L27.03 10.26Q26.71 10.63 26.50 10.99L26.50 10.99L26.50 10.99Q26.28 11.35 26.10 11.75L26.10 11.75L26.10 11.75Q25.93 12.14 25.78 12.56L25.78 12.56L25.78 12.56Q25.63 12.98 25.45 13.44L25.45 13.44L25.45 13.44Q25.30 13.83 25.17 14.25L25.17 14.25L25.17 14.25Q25.05 14.66 25.03 14.97L25.03 14.97L25.03 14.97Q25.03 15.22 25.03 15.32L25.03 15.32L25.03 15.32Q25.02 15.43 24.95 15.43L24.95 15.43L24.95 15.43Q24.89 15.43 24.72 15.36L24.72 15.36L24.72 15.36Q24.56 15.29 24.38 15.14L24.38 15.14L24.38 15.14Q24.21 14.99 24.07 14.77L24.07 14.77L24.07 14.77Q23.93 14.55 23.93 14.24ZM26.60 8.16L26.60 8.16L26.60 8.16Q26.60 8.08 26.64 7.91L26.64 7.91L26.64 7.91Q26.57 7.84 26.52 7.70L26.52 7.70L26.52 7.70Q26.47 7.56 26.47 7.45L26.47 7.45L26.47 7.45Q26.47 7.32 26.51 7.11L26.51 7.11L26.51 7.11Q26.54 6.89 26.60 6.64L26.60 6.64L26.60 6.64Q26.66 6.38 26.74 6.11L26.74 6.11L26.74 6.11Q26.82 5.84 26.91 5.61L26.91 5.61L26.91 5.61Q27.08 5.61 27.32 5.71L27.32 5.71L27.32 5.71Q27.57 5.80 27.82 5.94L27.82 5.94L27.82 5.94Q28.07 6.09 28.28 6.27L28.28 6.27L28.28 6.27Q28.49 6.44 28.60 6.59L28.60 6.59L28.60 6.59Q28.45 6.75 28.20 7.02L28.20 7.02L28.20 7.02Q27.94 7.29 27.71 7.59L27.71 7.59L27.71 7.59Q27.47 7.90 27.27 8.16L27.27 8.16L27.27 8.16Q27.08 8.43 27.02 8.54L27.02 8.54L27.02 8.54Q26.85 8.51 26.73 8.39L26.73 8.39L26.73 8.39Q26.60 8.27 26.60 8.16ZM32.82 8.96L32.82 8.96L32.82 8.96Q33.04 8.96 33.29 9.07L33.29 9.07L33.29 9.07Q33.53 9.17 33.64 9.32L33.64 9.32L33.64 9.32Q33.12 10.37 32.77 11.10L32.77 11.10L32.77 11.10Q32.41 11.83 32.15 12.38L32.15 12.38L32.15 12.38Q31.89 12.94 31.70 13.37L31.70 13.37L31.70 13.37Q31.50 13.80 31.30 14.27L31.30 14.27L31.30 14.27Q30.97 15.05 30.67 15.86L30.67 15.86L30.67 15.86Q30.38 16.66 30.15 17.44L30.15 17.44L30.15 17.44Q29.92 18.21 29.74 18.93L29.74 18.93L29.74 18.93Q29.57 19.66 29.48 20.26L29.48 20.26L29.48 20.26Q29.43 20.31 29.23 20.31L29.23 20.31L29.23 20.31Q29.15 20.31 29.07 20.27L29.07 20.27L29.07 20.27Q28.99 20.23 28.98 20.17L28.98 20.17L28.98 20.17Q28.95 20.10 28.88 20.03L28.88 20.03L28.88 20.03Q28.80 19.96 28.69 19.94L28.69 19.94L28.69 19.94Q28.57 19.91 28.50 19.80L28.50 19.80L28.50 19.80Q28.42 19.70 28.39 19.57L28.39 19.57L28.39 19.57Q28.55 17.11 29.86 14L29.86 14L29.86 14Q29.37 14.49 29.02 14.78L29.02 14.78L29.02 14.78Q28.66 15.06 28.48 15.09L28.48 15.09L28.48 15.09Q28.28 15.09 28.05 14.89L28.05 14.89L28.05 14.89Q27.82 14.69 27.62 14.39L27.62 14.39L27.62 14.39Q27.41 14.10 27.28 13.76L27.28 13.76L27.28 13.76Q27.15 13.41 27.15 13.13L27.15 13.13L27.15 13.13Q27.15 12.77 27.34 12.16L27.34 12.16L27.34 12.16Q27.54 11.55 27.83 10.95L27.83 10.95L27.83 10.95Q28.95 8.72 31.16 8.32L31.16 8.32L31.16 8.32Q31.36 8.34 31.56 8.43L31.56 8.43L31.56 8.43Q31.77 8.53 31.93 8.67L31.93 8.67L31.93 8.67Q32.10 8.81 32.22 8.97L32.22 8.97L32.22 8.97Q32.34 9.14 32.37 9.30L32.37 9.30L32.37 9.30Q32.40 9.21 32.56 9.09L32.56 9.09L32.56 9.09Q32.73 8.96 32.82 8.96ZM30.31 12.70L30.31 12.70L30.31 12.70Q30.77 12.07 31.12 11.49L31.12 11.49L31.12 11.49Q31.47 10.92 31.71 10.47L31.71 10.47L31.71 10.47Q31.99 9.95 32.20 9.49L32.20 9.49L32.20 9.49Q32.16 9.45 31.97 9.41L31.97 9.41L31.97 9.41Q31.78 9.37 31.63 9.37L31.63 9.37L31.63 9.37Q31.26 9.37 30.77 9.73L30.77 9.73L30.77 9.73Q30.27 10.09 29.88 10.64L29.88 10.64L29.88 10.64Q29.18 11.61 28.81 12.56L28.81 12.56L28.81 12.56Q28.43 13.51 28.43 14.32L28.43 14.32L28.43 14.32Q28.43 14.42 28.56 14.42L28.56 14.42L28.56 14.42Q29.06 14.06 29.48 13.65L29.48 13.65L29.48 13.65Q29.90 13.24 30.31 12.70ZM37.35 14.87L37.35 14.87L37.35 14.87Q37.09 14.64 37.00 14.31L37.00 14.31L37.00 14.31Q36.90 13.97 36.90 13.73L36.90 13.73L36.90 13.73Q36.90 13.44 36.97 13.23L36.97 13.23L36.97 13.23Q36.92 13.23 36.72 13.45L36.72 13.45L36.72 13.45Q36.53 13.68 36.30 13.99L36.30 13.99L36.30 13.99Q36.06 14.29 35.84 14.59L35.84 14.59L35.84 14.59Q35.62 14.88 35.50 15.02L35.50 15.02L35.50 15.02Q35.32 15.22 35.16 15.33L35.16 15.33L35.16 15.33Q35.00 15.44 34.90 15.46L34.90 15.46L34.90 15.46Q34.68 15.44 34.43 15.37L34.43 15.37L34.43 15.37Q34.19 15.29 33.97 15.15L33.97 15.15L33.97 15.15Q33.75 15.01 33.59 14.81L33.59 14.81L33.59 14.81Q33.43 14.62 33.38 14.36L33.38 14.36L33.38 14.36Q33.38 13.97 33.40 13.72L33.40 13.72L33.40 13.72Q33.42 13.47 33.49 13.17L33.49 13.17L33.49 13.17Q33.61 12.64 33.86 11.97L33.86 11.97L33.86 11.97Q34.10 11.30 34.43 10.65L34.43 10.65L34.43 10.65Q34.75 10.00 35.15 9.43L35.15 9.43L35.15 9.43Q35.55 8.86 35.99 8.54L35.99 8.54L35.99 8.54Q36.12 8.54 36.29 8.56L36.29 8.56L36.29 8.56Q36.46 8.58 36.63 8.64L36.63 8.64L36.63 8.64Q36.81 8.69 36.97 8.77L36.97 8.77L36.97 8.77Q37.13 8.85 37.24 8.97L37.24 8.97L37.24 8.97Q37.11 9.11 36.60 9.91L36.60 9.91L36.60 9.91Q36.09 10.71 35.46 12.21L35.46 12.21L35.46 12.21Q35.39 12.36 35.29 12.66L35.29 12.66L35.29 12.66Q35.20 12.95 35.10 13.27L35.10 13.27L35.10 13.27Q35.00 13.59 34.94 13.90L34.94 13.90L34.94 13.90Q34.87 14.21 34.87 14.39L34.87 14.39L34.87 14.39Q34.87 14.50 34.91 14.56L34.91 14.56L34.91 14.56Q34.94 14.62 34.97 14.64L34.97 14.64L34.97 14.64Q35.18 14.56 35.50 14.18L35.50 14.18L35.50 14.18Q35.83 13.80 36.40 13.02L36.40 13.02L36.40 13.02Q36.54 12.82 36.73 12.57L36.73 12.57L36.73 12.57Q36.92 12.32 37.11 12.03L37.11 12.03L37.11 12.03Q37.31 11.75 37.49 11.44L37.49 11.44L37.49 11.44Q37.66 11.13 37.77 10.82L37.77 10.82L37.77 10.82Q37.83 10.65 37.92 10.42L37.92 10.42L37.92 10.42Q38.01 10.19 38.14 9.94L38.14 9.94L38.14 9.94Q38.28 9.69 38.45 9.43L38.45 9.43L38.45 9.43Q38.63 9.17 38.86 8.95L38.86 8.95L38.86 8.95Q39.05 8.95 39.26 8.99L39.26 8.99L39.26 8.99Q39.47 9.03 39.66 9.09L39.66 9.09L39.66 9.09Q39.84 9.16 39.98 9.23L39.98 9.23L39.98 9.23Q40.12 9.31 40.19 9.39L40.19 9.39L40.19 9.39Q39.94 10.01 39.63 10.61L39.63 10.61L39.63 10.61Q39.33 11.21 39.06 11.79L39.06 11.79L39.06 11.79Q38.79 12.38 38.61 12.95L38.61 12.95L38.61 12.95Q38.43 13.52 38.43 14.07L38.43 14.07L38.43 14.07Q38.43 14.36 38.48 14.58L38.48 14.58L38.48 14.58Q38.53 14.80 38.58 14.95L38.58 14.95L38.58 14.95Q38.64 15.09 38.69 15.19L38.69 15.19L38.69 15.19Q38.74 15.29 38.74 15.36L38.74 15.36L38.74 15.36Q38.74 15.37 38.71 15.40L38.71 15.40L38.71 15.40Q38.70 15.41 38.68 15.41L38.68 15.41L38.68 15.41Q38.58 15.41 38.43 15.37L38.43 15.37L38.43 15.37Q38.28 15.33 38.09 15.25L38.09 15.25L38.09 15.25Q37.90 15.18 37.71 15.08L37.71 15.08L37.71 15.08Q37.52 14.98 37.35 14.87ZM45.40 9.38L45.40 9.38L45.40 9.38Q45.35 10.25 45.09 10.87L45.09 10.87L45.09 10.87Q44.84 11.49 44.37 11.96L44.37 11.96L44.37 11.96Q43.90 12.43 43.23 12.81L43.23 12.81L43.23 12.81Q42.56 13.19 41.66 13.54L41.66 13.54L41.66 13.54Q41.66 13.62 41.66 13.71L41.66 13.71L41.66 13.71Q41.65 13.80 41.65 13.90L41.65 13.90L41.65 13.90Q41.65 14.08 41.68 14.28L41.68 14.28L41.68 14.28Q41.71 14.48 41.78 14.64L41.78 14.64L41.78 14.64Q41.85 14.81 41.97 14.92L41.97 14.92L41.97 14.92Q42.10 15.02 42.29 15.02L42.29 15.02L42.29 15.02Q42.67 15.02 43.04 14.85L43.04 14.85L43.04 14.85Q43.40 14.69 43.73 14.44L43.73 14.44L43.73 14.44Q44.06 14.20 44.35 13.91L44.35 13.91L44.35 13.91Q44.63 13.62 44.86 13.38L44.86 13.38L44.86 13.38Q45.00 13.51 45.09 13.62L45.09 13.62L45.09 13.62Q44.46 14.46 43.72 15.02L43.72 15.02L43.72 15.02Q42.97 15.57 42.29 15.72L42.29 15.72L42.29 15.72Q41.33 15.61 40.79 15.02L40.79 15.02L40.79 15.02Q40.25 14.42 40.25 13.58L40.25 13.58L40.25 13.58Q40.25 13.01 40.41 12.41L40.41 12.41L40.41 12.41Q40.57 11.82 40.86 11.26L40.86 11.26L40.86 11.26Q41.15 10.71 41.53 10.22L41.53 10.22L41.53 10.22Q41.92 9.73 42.36 9.37L42.36 9.37L42.36 9.37Q42.80 9.00 43.27 8.79L43.27 8.79L43.27 8.79Q43.74 8.58 44.20 8.58L44.20 8.58L44.20 8.58Q44.84 8.67 45.40 9.38ZM44.44 9.84L44.44 9.84L44.44 9.84Q44.06 9.90 43.65 10.15L43.65 10.15L43.65 10.15Q43.25 10.40 42.89 10.82L42.89 10.82L42.89 10.82Q42.53 11.24 42.24 11.80L42.24 11.80L42.24 11.80Q41.94 12.36 41.78 13.01L41.78 13.01L41.78 13.01Q42.90 12.45 43.64 11.63L43.64 11.63L43.64 11.63Q44.38 10.81 44.44 9.84Z"></path></g><defs data-v-423bf9ae=""><linearGradient data-v-423bf9ae="" gradientTransform="rotate(25)" id="8e0cd857-c504-4aa5-9dee-a99477fac078" x1="0%" y1="0%" x2="100%" y2="0%"><stop data-v-423bf9ae="" offset="0%" style="stop-color: rgb(125, 227, 141); stop-opacity: 1;"></stop><stop data-v-423bf9ae="" offset="100%" style="stop-color: rgb(37, 159, 152); stop-opacity: 1;"></stop></linearGradient></defs><g data-v-423bf9ae="" id="3e006345-6df9-4eb6-8855-fde25daf44dd" transform="matrix(1.875,0,0,1.875,1.125,-330.328125)" stroke="none" fill="url(#8e0cd857-c504-4aa5-9dee-a99477fac078)"><path d="M41 176.375c-13.255 0-24 10.745-24 24s10.745 24 24 24 24-10.745 24-24-10.745-24-24-24zm9.064 27.75H44.75v5.314c0 2.201-1.688 4-3.75 4-2.062 0-3.75-1.799-3.75-4v-5.314h-5.315c-2.2 0-4-1.688-4-3.75 0-2.062 1.8-3.75 4-3.75h5.315v-5.314c0-2.201 1.688-4 3.75-4 2.062 0 3.75 1.799 3.75 4v5.314h5.314c2.201 0 4 1.688 4 3.75 0 2.063-1.798 3.75-4 3.75z"></path></g><!----></svg>