<svg data-v-fde0c5aa="" xmlns="http://www.w3.org/2000/svg" viewBox="0 0 300 300" class="iconLeft"><!----><defs data-v-fde0c5aa=""><!----></defs><rect data-v-fde0c5aa="" fill="transparent" x="0" y="0" width="300px" height="300px" class="logo-background-square"></rect><defs data-v-fde0c5aa=""><!----></defs><g data-v-fde0c5aa="" id="42da0ba9-ba4a-4b02-aaeb-c07506d2a6a7" fill="#000000" transform="matrix(5.384941577911377,0,0,5.384941577911377,163.986488437234,106.2531180260244)"><path d="M4.24 3.54L4.24 3.54L4.24 3.54Q3.23 3.51 2.54 3.90L2.54 3.90L2.54 3.90Q1.84 4.29 1.14 5.40L1.14 5.40L1.14 5.40Q0.44 6.50 0.25 7.78L0.25 7.78L0.25 7.78Q0.06 9.06 0.40 9.99L0.40 9.99L0.40 9.99Q0.74 10.92 1.34 11.60L1.34 11.60L1.34 11.60Q1.93 12.28 2.80 12.57L2.80 12.57L2.80 12.57Q3.66 12.86 4.48 12.54L4.48 12.54L4.48 12.54Q5.29 12.22 6.19 11.03L6.19 11.03L5.90 10.75L5.90 10.75Q4.96 11.79 3.54 10.96L3.54 10.96L3.54 10.96Q2.11 10.14 1.67 8.51L1.67 8.51L1.67 8.51Q1.24 6.89 1.69 5.80L1.69 5.80L1.69 5.80Q2.13 4.71 3.15 4.69L3.15 4.69L3.15 4.69Q4.17 4.67 4.49 5.17L4.49 5.17L4.49 5.17Q4.81 5.67 4.57 6.01L4.57 6.01L4.78 6.12L6.01 5.09L6.01 5.09Q6.17 4.69 5.71 4.13L5.71 4.13L5.71 4.13Q5.25 3.56 4.24 3.54ZM9.65 6.49L9.65 6.49L9.65 6.49Q8.64 6.45 7.57 7.15L7.57 7.15L7.57 7.15Q6.51 7.85 7.12 9.02L7.12 9.02L8.65 8.13L8.65 8.13Q7.97 7.09 9.23 7.06L9.23 7.06L9.23 7.06Q10.49 7.03 10.34 8.76L10.34 8.76L8.13 8.80L6.43 10.71L6.43 10.71Q6.36 11.55 7.02 12.14L7.02 12.14L7.02 12.14Q7.69 12.73 8.35 12.70L8.35 12.70L8.35 12.70Q9.00 12.67 9.47 12.39L9.47 12.39L9.47 12.39Q9.93 12.10 10.38 11.57L10.38 11.57L10.38 11.57Q10.55 12.52 11.50 12.69L11.50 12.69L12.71 11.38L12.63 11.21L12.63 11.21Q12.07 11.33 11.92 10.58L11.92 10.58L11.93 8.16L11.93 8.16Q11.85 7.23 11.25 6.88L11.25 6.88L11.25 6.88Q10.65 6.53 9.65 6.49ZM7.82 9.88L10.33 9.88L10.33 11.11L10.33 11.11Q10.08 11.42 9.19 11.39L9.19 11.39L9.19 11.39Q8.29 11.35 7.57 10.12L7.57 10.12L7.82 9.88ZM14.62 6.42L12.94 7.64L13.10 7.87L13.10 7.87Q13.60 7.56 13.55 8.50L13.55 8.50L13.55 8.50Q13.48 11.46 13.57 11.91L13.57 11.91L13.57 11.91Q13.66 12.37 14.23 12.71L14.23 12.71L15.68 11.46L15.68 11.29L15.68 11.29Q15.22 11.40 15.10 10.78L15.10 10.78L15.10 10.78Q14.98 10.17 15.05 8.27L15.05 8.27L15.05 8.27Q15.93 7.48 16.59 8.43L16.59 8.43L17.83 7.29L17.83 7.29Q17.05 6.25 16.42 6.49L16.42 6.49L16.42 6.49Q15.79 6.72 15.08 7.62L15.08 7.62L15.08 7.62Q15.14 6.77 14.62 6.42L14.62 6.42Z"></path></g><defs data-v-fde0c5aa=""><linearGradient data-v-fde0c5aa="" gradientTransform="rotate(25)" id="18a50da2-a2db-40de-a341-cb9e8504e059" x1="0%" y1="0%" x2="100%" y2="0%"><stop data-v-fde0c5aa="" offset="0%" stop-color="#1A1439" stop-opacity="1"></stop><stop data-v-fde0c5aa="" offset="100%" stop-color="#CB9F98" stop-opacity="1"></stop></linearGradient></defs><g data-v-fde0c5aa="" id="edb8b1dd-36c1-413e-8fef-73e3ede099b9" stroke="none" fill="url(#18a50da2-a2db-40de-a341-cb9e8504e059)" transform="matrix(1.6401315927505493,0,0,1.6401315927505493,14.030877210085983,109.02009216079645)"><path d="M83.5 37.9s.4-2.2-.6-3.2c.2-2.1.7-4.4-.9-6.1l-.9-1.9s.5-2.2-3.3-3.5c-3.2-2-6.4-3.1-8.4-4.3.3-.3 1-1.1.2-1.6-.9-.5-2.2-.4-2.2-.4l-.3.2c-2.5-1.8-9.7-7-12.7-7.4C49 8.7 40.8 8 32.3 8.5l-.2-.7H32L30.7 3h.1l-.2-.6h-.4l.2.6h.1l1.4 5h-.1l.2.6c-.6 0-1.2.1-1.9.1 0 0-3.9.2-6.8 1.5s-3.7 5-3.7 5-.4 2-1 3.2c-1.1.9-1.6 1.7-1.8 3.2-.2 1.5-1.4 5.8-.8 8.2 0 0 .1.8.4.9s0 6.2 2.9 6.9c2 .5 4.5 0 4.6-2.7l16 5.7s.9 6 5.5 6.8c5.4 1 7.3-2.7 7.3-2.7s5.5 1.4 16.5-.3 13.1-3 13.2-3.9c.4-.1 1.6-.2 1.7-1.6l-.6-1zm-2.7-12.1s.2 1.3.4 1.5c.2.2.8 2.3.7 2.7-.1.4-.9.5-1.3.2-.4-.2-1-3.6-1-3.6l-1.7-3.3c2.9 1.3 2.9 2.5 2.9 2.5zM18.7 36c-1 0-1.9-1.9-1.9-4.2s.8-4.2 1.9-4.2c1 0 1.9 1.9 1.9 4.2s-.9 4.2-1.9 4.2zM21 17.4c-.7-.7-.2-1.2-.2-1.2s.5-1.2 1-2.5c.5-1.2 2-3.6 7.2-3.5-.6 1-2.9 5.5-3.4 9.5-.9-.2-3.9-1.6-4.6-2.3zm18.4-.4l-.9 2.3-.1-.8-1.6-.8-1.3-.1-1.8.2s-2.7.8-.7 3.4c.8.6 2.3.3 2.3.3l1.5-.1h.3l.9.4-.2.8c-2.9-.7-8.3-2-10.9-2.6.1-1 1-6.3 3.2-9.7h.5c5.7 0 8.8 6.7 8.8 6.7zm5.7 28.5c-2.3-.2-4.1-3.1-4.1-6.3 0-3.3 1.9-5.7 4.1-5.5 2.3.2 4.1 3.1 4.1 6.3 0 3.3-1.9 5.7-4.1 5.5zm1.6-24.7c-2.8-.4-3-.9-3-.9s-5.5-8.8-6.2-9.1c-.7-.3 14.3-1.8 18.8 0 5 1.9 12.7 8.5 13 8.8.3.3 1 .4 1 .4s-19.3 1.4-23.6.8zm3.7 4.2l.9-.4s11.5.6 13.8 7.5c-3.8 1.6-15.4-1.9-14.7-7.1zm9.9 17.6c-5-.2-5.3-2.2-6.9-7.3 3.3 1.1 7.6 2.9 8.6 3.8.4 1 1.2 3.6-1.7 3.5zm3.5.1c-.1-.6.3-1.7.3-1.7 1.3-2.2 1.4-7.2 3.6-7.2 3-.1 12.5-1.6 12.5-1.6 1.6-.1 1.4 6.5 2.1 7.6-5.8 2.5-16.4 3.6-18.5 2.9zm19.6-4.5l-.1.5s-.1 1-.6-.5.2-3.1.2-3.1.2.5.4.9c.3.3.1 2.2.1 2.2z"></path></g><!----></svg>