<svg data-v-423bf9ae="" xmlns="http://www.w3.org/2000/svg" viewBox="0 0 115.44595380449502 60" class="font"><!----><!----><!----><g data-v-423bf9ae="" id="6dd32368-e647-4246-946c-5a31ee4a0c80" fill="black" transform="matrix(6.54154634475708,0,0,6.54154634475708,-1.1898187398910522,-23.143051147460938)"><path d="M4.24 3.54L4.24 3.54L4.24 3.54Q3.23 3.51 2.54 3.90L2.54 3.90L2.54 3.90Q1.84 4.29 1.14 5.40L1.14 5.40L1.14 5.40Q0.44 6.50 0.25 7.78L0.25 7.78L0.25 7.78Q0.06 9.06 0.40 9.99L0.40 9.99L0.40 9.99Q0.74 10.92 1.34 11.60L1.34 11.60L1.34 11.60Q1.93 12.28 2.80 12.57L2.80 12.57L2.80 12.57Q3.66 12.86 4.48 12.54L4.48 12.54L4.48 12.54Q5.29 12.22 6.19 11.03L6.19 11.03L5.90 10.75L5.90 10.75Q4.96 11.79 3.54 10.96L3.54 10.96L3.54 10.96Q2.11 10.14 1.67 8.51L1.67 8.51L1.67 8.51Q1.24 6.89 1.69 5.80L1.69 5.80L1.69 5.80Q2.13 4.71 3.15 4.69L3.15 4.69L3.15 4.69Q4.17 4.67 4.49 5.17L4.49 5.17L4.49 5.17Q4.81 5.67 4.57 6.01L4.57 6.01L4.78 6.12L6.01 5.09L6.01 5.09Q6.17 4.69 5.71 4.13L5.71 4.13L5.71 4.13Q5.25 3.56 4.24 3.54ZM9.65 6.49L9.65 6.49L9.65 6.49Q8.64 6.45 7.57 7.15L7.57 7.15L7.57 7.15Q6.51 7.85 7.12 9.02L7.12 9.02L8.65 8.13L8.65 8.13Q7.97 7.09 9.23 7.06L9.23 7.06L9.23 7.06Q10.49 7.03 10.34 8.76L10.34 8.76L8.13 8.80L6.43 10.71L6.43 10.71Q6.36 11.55 7.02 12.14L7.02 12.14L7.02 12.14Q7.69 12.73 8.35 12.70L8.35 12.70L8.35 12.70Q9.00 12.67 9.47 12.39L9.47 12.39L9.47 12.39Q9.93 12.10 10.38 11.57L10.38 11.57L10.38 11.57Q10.55 12.52 11.50 12.69L11.50 12.69L12.71 11.38L12.63 11.21L12.63 11.21Q12.07 11.33 11.92 10.58L11.92 10.58L11.93 8.16L11.93 8.16Q11.85 7.23 11.25 6.88L11.25 6.88L11.25 6.88Q10.65 6.53 9.65 6.49ZM7.82 9.88L10.33 9.88L10.33 11.11L10.33 11.11Q10.08 11.42 9.19 11.39L9.19 11.39L9.19 11.39Q8.29 11.35 7.57 10.12L7.57 10.12L7.82 9.88ZM14.62 6.42L12.94 7.64L13.10 7.87L13.10 7.87Q13.60 7.56 13.55 8.50L13.55 8.50L13.55 8.50Q13.48 11.46 13.57 11.91L13.57 11.91L13.57 11.91Q13.66 12.37 14.23 12.71L14.23 12.71L15.68 11.46L15.68 11.29L15.68 11.29Q15.22 11.40 15.10 10.78L15.10 10.78L15.10 10.78Q14.98 10.17 15.05 8.27L15.05 8.27L15.05 8.27Q15.93 7.48 16.59 8.43L16.59 8.43L17.83 7.29L17.83 7.29Q17.05 6.25 16.42 6.49L16.42 6.49L16.42 6.49Q15.79 6.72 15.08 7.62L15.08 7.62L15.08 7.62Q15.14 6.77 14.62 6.42L14.62 6.42Z"></path></g><!----><!----></svg>