<svg data-v-423bf9ae="" xmlns="http://www.w3.org/2000/svg" viewBox="0 0 288.0547159775234 60" class="font"><!----><!----><!----><g data-v-423bf9ae="" id="5d5f4440-8a5e-4c80-92eb-22abecc5b6b8" fill="black" transform="matrix(4.55927038192749,0,0,4.55927038192749,-2.87233829498291,-12.76595687866211)"><path d="M4.31 3.64L4.31 3.64Q6.92 3.64 7.80 5.68L7.80 5.68L7.20 6.17L7.20 6.17Q6.85 5.18 6.15 4.73L6.15 4.73L6.15 4.73Q5.46 4.28 4.33 4.28L4.33 4.28L4.33 4.28Q3.51 4.28 2.91 4.54L2.91 4.54L2.91 4.54Q2.31 4.79 2.00 5.22L2.00 5.22L2.00 5.22Q1.68 5.66 1.68 6.20L1.68 6.20L1.68 6.20Q1.68 6.73 1.95 7.08L1.95 7.08L1.95 7.08Q2.21 7.43 2.85 7.68L2.85 7.68L2.85 7.68Q3.49 7.92 4.61 8.12L4.61 8.12L4.61 8.12Q6.41 8.43 7.17 9.02L7.17 9.02L7.17 9.02Q7.92 9.60 7.92 10.64L7.92 10.64L7.92 10.64Q7.92 11.38 7.49 11.96L7.49 11.96L7.49 11.96Q7.06 12.53 6.27 12.84L6.27 12.84L6.27 12.84Q5.47 13.16 4.45 13.16L4.45 13.16L4.45 13.16Q3.00 13.16 2.00 12.58L2.00 12.58L2.00 12.58Q0.99 12.00 0.63 10.95L0.63 10.95L1.25 10.47L1.25 10.47Q1.53 11.47 2.37 11.99L2.37 11.99L2.37 11.99Q3.22 12.52 4.47 12.52L4.47 12.52L4.47 12.52Q5.67 12.52 6.43 12.03L6.43 12.03L6.43 12.03Q7.20 11.54 7.20 10.68L7.20 10.68L7.20 10.68Q7.20 9.94 6.57 9.51L6.57 9.51L6.57 9.51Q5.95 9.07 4.41 8.81L4.41 8.81L4.41 8.81Q3.11 8.58 2.35 8.26L2.35 8.26L2.35 8.26Q1.60 7.94 1.27 7.46L1.27 7.46L1.27 7.46Q0.94 6.99 0.94 6.27L0.94 6.27L0.94 6.27Q0.94 5.56 1.35 4.96L1.35 4.96L1.35 4.96Q1.76 4.35 2.53 4.00L2.53 4.00L2.53 4.00Q3.29 3.64 4.31 3.64L4.31 3.64ZM13.19 5.88L13.19 5.88Q14.39 5.88 15.13 6.55L15.13 6.55L15.13 6.55Q15.86 7.22 15.86 8.47L15.86 8.47L15.86 13.02L15.16 13.02L15.16 8.69L15.16 8.69Q15.16 7.59 14.61 7.03L14.61 7.03L14.61 7.03Q14.06 6.48 13.12 6.48L13.12 6.48L13.12 6.48Q12.45 6.48 11.87 6.80L11.87 6.80L11.87 6.80Q11.30 7.11 10.96 7.70L10.96 7.70L10.96 7.70Q10.61 8.29 10.61 9.07L10.61 9.07L10.61 13.02L9.91 13.02L9.91 2.80L10.61 2.80L10.61 7.41L10.61 7.41Q10.95 6.66 11.63 6.27L11.63 6.27L11.63 6.27Q12.31 5.88 13.19 5.88L13.19 5.88ZM21.17 5.88L21.17 5.88Q22.72 5.88 23.61 6.85L23.61 6.85L23.61 6.85Q24.50 7.83 24.50 9.52L24.50 9.52L24.50 9.52Q24.50 11.21 23.61 12.19L23.61 12.19L23.61 12.19Q22.72 13.16 21.17 13.16L21.17 13.16L21.17 13.16Q19.61 13.16 18.73 12.19L18.73 12.19L18.73 12.19Q17.84 11.21 17.84 9.52L17.84 9.52L17.84 9.52Q17.84 7.83 18.73 6.85L18.73 6.85L18.73 6.85Q19.61 5.88 21.17 5.88L21.17 5.88ZM21.17 6.48L21.17 6.48Q19.94 6.48 19.24 7.29L19.24 7.29L19.24 7.29Q18.54 8.11 18.54 9.52L18.54 9.52L18.54 9.52Q18.54 10.93 19.24 11.75L19.24 11.75L19.24 11.75Q19.94 12.56 21.17 12.56L21.17 12.56L21.17 12.56Q22.40 12.56 23.10 11.75L23.10 11.75L23.10 11.75Q23.80 10.93 23.80 9.52L23.80 9.52L23.80 9.52Q23.80 8.11 23.10 7.29L23.10 7.29L23.10 7.29Q22.40 6.48 21.17 6.48L21.17 6.48ZM29.82 5.88L29.82 5.88Q31.30 5.88 32.16 6.85L32.16 6.85L32.16 6.85Q33.03 7.81 33.03 9.52L33.03 9.52L33.03 9.52Q33.03 11.23 32.16 12.19L32.16 12.19L32.16 12.19Q31.30 13.16 29.82 13.16L29.82 13.16L29.82 13.16Q28.92 13.16 28.25 12.73L28.25 12.73L28.25 12.73Q27.57 12.29 27.24 11.54L27.24 11.54L27.24 15.96L26.54 15.96L26.54 6.02L27.17 6.02L27.22 7.60L27.22 7.60Q27.51 6.79 28.19 6.33L28.19 6.33L28.19 6.33Q28.87 5.88 29.82 5.88L29.82 5.88ZM29.74 12.54L29.74 12.54Q30.95 12.54 31.64 11.74L31.64 11.74L31.64 11.74Q32.33 10.93 32.33 9.52L32.33 9.52L32.33 9.52Q32.33 8.11 31.64 7.30L31.64 7.30L31.64 7.30Q30.95 6.50 29.74 6.50L29.74 6.50L29.74 6.50Q28.64 6.50 27.97 7.24L27.97 7.24L27.97 7.24Q27.30 7.98 27.24 9.27L27.24 9.27L27.24 9.77L27.24 9.77Q27.30 11.06 27.97 11.80L27.97 11.80L27.97 11.80Q28.64 12.54 29.74 12.54L29.74 12.54ZM39.38 6.54L37.52 13.02L36.65 13.02L33.77 3.78L34.52 3.78L37.09 12.45L39.51 3.78L40.32 3.78L42.74 12.46L45.33 3.78L46.05 3.78L43.16 13.02L42.29 13.02L40.43 6.54L39.91 4.54L39.90 4.54L39.38 6.54ZM48.06 4.66L48.06 4.66Q47.80 4.66 47.63 4.50L47.63 4.50L47.63 4.50Q47.47 4.34 47.47 4.07L47.47 4.07L47.47 4.07Q47.47 3.81 47.63 3.65L47.63 3.65L47.63 3.65Q47.80 3.49 48.06 3.49L48.06 3.49L48.06 3.49Q48.33 3.49 48.49 3.65L48.49 3.65L48.49 3.65Q48.65 3.81 48.65 4.07L48.65 4.07L48.65 4.07Q48.65 4.34 48.49 4.50L48.49 4.50L48.49 4.50Q48.33 4.66 48.06 4.66L48.06 4.66ZM48.41 6.02L48.41 13.02L47.71 13.02L47.71 6.02L48.41 6.02ZM53.20 13.16L53.20 13.16Q52.14 13.16 51.35 12.74L51.35 12.74L51.35 12.74Q50.57 12.32 50.27 11.52L50.27 11.52L50.85 11.14L50.85 11.14Q51.06 11.84 51.70 12.19L51.70 12.19L51.70 12.19Q52.35 12.54 53.28 12.54L53.28 12.54L53.28 12.54Q54.24 12.54 54.78 12.18L54.78 12.18L54.78 12.18Q55.31 11.82 55.31 11.21L55.31 11.21L55.31 11.21Q55.31 10.70 54.85 10.39L54.85 10.39L54.85 10.39Q54.39 10.08 53.23 9.87L53.23 9.87L53.23 9.87Q51.76 9.60 51.16 9.16L51.16 9.16L51.16 9.16Q50.55 8.71 50.55 7.88L50.55 7.88L50.55 7.88Q50.55 7.34 50.89 6.87L50.89 6.87L50.89 6.87Q51.23 6.41 51.84 6.15L51.84 6.15L51.84 6.15Q52.46 5.88 53.24 5.88L53.24 5.88L53.24 5.88Q54.35 5.88 55.01 6.30L55.01 6.30L55.01 6.30Q55.68 6.72 55.93 7.59L55.93 7.59L55.33 7.94L55.33 7.94Q54.94 6.50 53.24 6.50L53.24 6.50L53.24 6.50Q52.68 6.50 52.23 6.68L52.23 6.68L52.23 6.68Q51.77 6.86 51.51 7.16L51.51 7.16L51.51 7.16Q51.25 7.46 51.25 7.81L51.25 7.81L51.25 7.81Q51.25 8.39 51.73 8.71L51.73 8.71L51.73 8.71Q52.21 9.03 53.41 9.24L53.41 9.24L53.41 9.24Q54.84 9.48 55.43 9.93L55.43 9.93L55.43 9.93Q56.01 10.37 56.01 11.19L56.01 11.19L56.01 11.19Q56.01 12.08 55.25 12.62L55.25 12.62L55.25 12.62Q54.49 13.16 53.20 13.16L53.20 13.16ZM63.81 9.35L63.81 9.35Q63.81 9.59 63.78 9.81L63.78 9.81L58.23 9.81L58.23 9.81Q58.30 11.10 58.99 11.82L58.99 11.82L58.99 11.82Q59.68 12.54 60.84 12.54L60.84 12.54L60.84 12.54Q61.67 12.54 62.27 12.21L62.27 12.21L62.27 12.21Q62.86 11.87 63.13 11.26L63.13 11.26L63.71 11.56L63.71 11.56Q63.32 12.33 62.59 12.75L62.59 12.75L62.59 12.75Q61.87 13.16 60.84 13.16L60.84 13.16L60.84 13.16Q59.29 13.16 58.42 12.19L58.42 12.19L58.42 12.19Q57.54 11.23 57.54 9.52L57.54 9.52L57.54 9.52Q57.54 7.81 58.39 6.85L58.39 6.85L58.39 6.85Q59.23 5.88 60.76 5.88L60.76 5.88L60.76 5.88Q62.19 5.88 63.00 6.83L63.00 6.83L63.00 6.83Q63.81 7.78 63.81 9.35L63.81 9.35ZM60.76 6.50L60.76 6.50Q59.63 6.50 58.97 7.20L58.97 7.20L58.97 7.20Q58.31 7.91 58.23 9.18L58.23 9.18L63.15 9.18L63.15 9.18Q63.08 7.92 62.46 7.21L62.46 7.21L62.46 7.21Q61.84 6.50 60.76 6.50L60.76 6.50Z"></path></g><!----><!----></svg>