<svg data-v-423bf9ae="" xmlns="http://www.w3.org/2000/svg" viewBox="0 0 83.3877527784279 60" class="font"><!----><!----><!----><g data-v-423bf9ae="" id="641f1dba-bfac-4a26-a542-0f56031565c0" fill="white" transform="matrix(6.122448921203613,0,0,6.122448921203613,-5.8163275718688965,-20.142860412597656)"><path d="M1.30 13.09L1.30 13.09Q1.16 13.09 1.06 12.98L1.06 12.98L1.06 12.98Q0.95 12.88 0.95 12.74L0.95 12.74L0.95 3.64L0.95 3.64Q0.95 3.49 1.06 3.39L1.06 3.39L1.06 3.39Q1.16 3.29 1.30 3.29L1.30 3.29L3.30 3.29L3.30 3.29Q3.46 3.29 3.56 3.39L3.56 3.39L3.56 3.39Q3.65 3.49 3.65 3.64L3.65 3.64L3.65 12.74L3.65 12.74Q3.65 12.88 3.56 12.98L3.56 12.98L3.56 12.98Q3.46 13.09 3.30 13.09L3.30 13.09L1.30 13.09ZM5.01 13.09L5.01 13.09Q4.90 13.09 4.81 13.00L4.81 13.00L4.81 13.00Q4.72 12.91 4.72 12.80L4.72 12.80L4.72 12.80Q4.72 12.71 4.73 12.67L4.73 12.67L7.99 3.70L7.99 3.70Q8.13 3.29 8.55 3.29L8.55 3.29L10.74 3.29L10.74 3.29Q11.16 3.29 11.30 3.70L11.30 3.70L14.56 12.67L14.56 12.67Q14.57 12.71 14.57 12.80L14.57 12.80L14.57 12.80Q14.57 12.91 14.48 13.00L14.48 13.00L14.48 13.00Q14.39 13.09 14.28 13.09L14.28 13.09L12.46 13.09L12.46 13.09Q12.12 13.09 11.98 12.78L11.98 12.78L11.48 11.42L7.81 11.42L7.31 12.78L7.31 12.78Q7.17 13.09 6.83 13.09L6.83 13.09L5.01 13.09ZM9.65 5.75L8.40 9.32L10.89 9.32L9.65 5.75Z"></path></g><!----><!----></svg>